<?xml version="1.0" encoding="UTF-8"?>
<svg id="Layer_1" xmlns="http://www.w3.org/2000/svg" version="1.1" viewBox="0 0 1024 1024">
  <!-- Generator: Adobe Illustrator 30.0.0, SVG Export Plug-In . SVG Version: 2.1.1 Build 123)  -->
  <path id="Rounded-Rectangle" fill="#bc95ff" d="M0,949c0,41.42,33.58,75,75,75h874c41.42,0,75-33.58,75-75V75c0-41.42-33.58-75-75-75H75C33.58,0,0,33.58,0,75v874Z"/>
  <g id="A-Mark">
    <path fill="#29005b" d="M285.49,843.39c-18.08,0-35.73-4.7-51.75-13.99-62.38-36.21-89.97-102.11-68.66-164,12.94-37.57,37.73-61.11,78.04-74.1,33.83-10.9,76.81-13.61,126.57-16.73l5.77-.36c10.11-.64,20.28-1.68,30.45-3.07-.06-11.15-.43-22.64-1.13-34.5-4.95-84.13-25.55-172.82-42.1-244.08-6.8-29.28-13.22-56.93-17.83-80.95-2.38-12.4,5.64-24.17,19.06-27.98,13.77-3.91,27.08,1.93,31.64,13.89,51.39,134.83,104.47,247.67,156.2,333.23,45.3-18,87.02-39.04,121.25-58.14,83.66-46.69,142.15-92.4,142.73-92.86,9.12-7.16,22.32-5.58,29.48,3.54,7.17,9.12,5.59,22.32-3.53,29.48-2.46,1.93-61.2,47.89-147.59,96.16-40.7,22.74-80.77,42.18-119.49,57.98,34.23,51.65,67.65,90.78,99.36,115.83,27.33,21.58,46.3,27.07,72.5,21,16.72-3.88,35.4-18.2,54.01-41.42,15.28-19.06,24.8-37.18,24.89-37.36,5.36-10.27,18.04-14.27,28.32-8.92,10.28,5.35,14.29,18.01,8.95,28.29-.45.86-11.18,21.4-28.86,43.6-25.07,31.48-51.26,50.56-77.82,56.72-9.84,2.28-19.05,3.3-27.7,3.3-34.08,0-59.46-15.79-80.31-32.25-36.81-29.07-74.86-73.81-113.59-133.51-30.11,10.55-59.3,18.73-87.36,24.5-4.11,70.9-21.98,128.42-54.04,174.55-18.14,26.09-43,45.8-70,55.5-12.42,4.46-25.04,6.68-37.46,6.68ZM404.43,613.68c-8.91,1.08-17.69,1.9-26.32,2.44l-5.78.36c-46.95,2.95-87.49,5.5-116.32,14.79-27.4,8.83-42.72,23.13-51.22,47.8-14.81,43.01,4.83,87.76,50.03,114,20.65,11.99,40.73,8.85,53.93,4.11,18.86-6.77,36.51-20.96,49.71-39.94,26.16-37.63,41.37-84.99,45.96-143.57ZM424.29,376.15c10.34,50.67,19.3,104.88,22.42,158.01.59,10,.96,19.78,1.12,29.34,21.51-4.84,42.87-10.98,63.75-18.01-8.12-13.65-16.27-27.95-24.44-42.88-21.05-38.48-42.05-80.73-62.85-126.47Z"/>
  </g>
</svg>
